<?xml version="1.0" encoding="UTF-8"?><svg id="Layer_1" xmlns="http://www.w3.org/2000/svg" xmlns:xlink="http://www.w3.org/1999/xlink" viewBox="0 0 111 118"><defs><style>.cls-1{fill:url(#linear-gradient);}</style><linearGradient id="linear-gradient" x1="0" y1="29.5" x2="111" y2="29.5" gradientUnits="userSpaceOnUse"><stop offset="0" stop-color="aqua"/><stop offset=".24" stop-color="#0073ff"/><stop offset=".55" stop-color="#9000e4"/><stop offset="1" stop-color="#5a0084"/></linearGradient></defs><path d="M19,78c-6.33,3.33-12.67,6.67-19,10,18.67,10,37.33,20,56,30,5.67-3.33,11.33-6.67,17-10-6.33-3.67-12.67-7.33-19-11,6-3.33,12-6.67,18-10,6.67,3.67,13.33,7.33,20,11,6.33-3.33,12.67-6.67,19-10-18.33-9.67-36.67-19.33-55-29-6.33,3-12.67,6-19,9,7.33,4,14.67,8,22,12-6,3.33-12,6.67-18,10-7.33-4-14.67-8-22-12Z"/><path class="cls-1" d="M19,19c-6.33,3.33-12.67,6.67-19,10,18.67,10,37.33,20,56,30,5.67-3.33,11.33-6.67,17-10-6.33-3.67-12.67-7.33-19-11,6-3.33,12-6.67,18-10,6.67,3.67,13.33,7.33,20,11,6.33-3.33,12.67-6.67,19-10C92.67,19.33,74.33,9.67,56,0c-6.33,3-12.67,6-19,9,7.33,4,14.67,8,22,12-6,3.33-12,6.67-18,10-7.33-4-14.67-8-22-12Z"/></svg>